
<svg
  version="1.0"
  xmlns="http://www.w3.org/2000/svg"
  xmlns:xlink="http://www.w3.org/1999/xlink"
  width="2400"
  height="1800"
>
  
  <rect
    x="0"
    y="0"
    width="100%"
    height="100%"
    fill="#ffffff"
    fill-opacity="1"
  ></rect>
  <svg
    version="1.0"
    xmlns="http://www.w3.org/2000/svg"
    xmlns:xlink="http://www.w3.org/1999/xlink"
    x="0"
    y="0"
    width="2400"
    height="1800"
    viewBox="0 0 340.000000 250.000000"
    preserveAspectRatio="xMidYMid meet"
    color-interpolation-filters="sRGB"
  >
    <defs><linearGradient id="92" x1="0%" y1="0%" x2="100%" y2="0%"><stop offset="0%" stop-color="#fa71cd"/> <stop offset="100%" stop-color="#9b59b6"/></linearGradient><linearGradient id="93" x1="0%" y1="0%" x2="100%" y2="0%"><stop offset="0%" stop-color="#f9d423"/> <stop offset="100%" stop-color="#f83600"/></linearGradient><linearGradient id="94" x1="0%" y1="0%" x2="100%" y2="0%"><stop offset="0%" stop-color="#0064d2"/> <stop offset="100%" stop-color="#1cb0f6"/></linearGradient><linearGradient id="95" x1="0%" y1="0%" x2="100%" y2="0%"><stop offset="0%" stop-color="#f00978"/> <stop offset="100%" stop-color="#3f51b1"/></linearGradient><linearGradient id="96" x1="0%" y1="0%" x2="100%" y2="0%"><stop offset="0%" stop-color="#7873f5"/> <stop offset="100%" stop-color="#ec77ab"/></linearGradient><linearGradient id="97" x1="0%" y1="0%" x2="100%" y2="0%"><stop offset="0%" stop-color="#f9d423"/> <stop offset="100%" stop-color="#e14fad"/></linearGradient><linearGradient id="98" x1="0%" y1="0%" x2="100%" y2="0%"><stop offset="0%" stop-color="#009efd"/> <stop offset="100%" stop-color="#2af598"/></linearGradient><linearGradient id="99" x1="0%" y1="0%" x2="100%" y2="0%"><stop offset="0%" stop-color="#ffcc00"/> <stop offset="100%" stop-color="#00b140"/></linearGradient><linearGradient id="100" x1="0%" y1="0%" x2="100%" y2="0%"><stop offset="0%" stop-color="#d51007"/> <stop offset="100%" stop-color="#ff8177"/></linearGradient><linearGradient id="102" x1="0%" y1="0%" x2="100%" y2="0%"><stop offset="0%" stop-color="#a2b6df"/> <stop offset="100%" stop-color="#0c3483"/></linearGradient><linearGradient id="103" x1="0%" y1="0%" x2="100%" y2="0%"><stop offset="0%" stop-color="#7ac5d8"/> <stop offset="100%" stop-color="#eea2a2"/></linearGradient><linearGradient id="104" x1="0%" y1="0%" x2="100%" y2="0%"><stop offset="0%" stop-color="#00ecbc"/> <stop offset="100%" stop-color="#007adf"/></linearGradient><linearGradient id="105" x1="0%" y1="0%" x2="100%" y2="0%"><stop offset="0%" stop-color="#b88746"/> <stop offset="100%" stop-color="#fdf5a6"/></linearGradient></defs> <g class="imagesvg isNoFont" transform="translate(140,99.21528434753418)"><g><rect fill="#333" fill-opacity="0" stroke-width="2" x="0" y="0" width="60" height="51.569429642108155" class="image-rect"/> <svg x="0" y="0" width="60" height="51.569429642108155" filtersec="colorsb5372043242" class="image-svg-svg primary" style="overflow: visible;"><svg xmlns="http://www.w3.org/2000/svg" viewBox="0.005591481924057007 -0.010402679443359375 81.87439727783203 70.37040710449219"><path d="M40.61 45.56q6 .54 11.92 1.06l17.07 1.45c1.69.14 3.38.31 5.08.42a.86.86 0 0 1 .93.74c1.7 6.11 3.73 12.12 5.27 18.28.23.92.61 1.8 1 2.85l-5.11-.45c-2.83-.26-5.67-.5-8.5-.78-3.86-.37-7.71-.77-11.57-1.14-3.41-.32-6.83-.6-10.24-.93-3.23-.3-6.45-.66-9.68-1-2.51-.24-5-.45-7.55-.68-3.24-.31-6.47-.63-9.71-.93a1 1 0 0 1-.93-.78q-3-10.23-6-20.44a1.84 1.84 0 0 0 .68.21c2-.19 4.05.35 6.08.44a53.93 53.93 0 0 1 6.2.58c1.93.3 3.91.24 5.87.38 3.04.25 6.11.49 9.19.72z" fill="#4cb2a7"/><path d="M40.61 45.56c-3.08-.23-6.15-.47-9.23-.69-2-.14-3.94-.08-5.87-.38a53.93 53.93 0 0 0-6.2-.58c-2-.09-4-.63-6.08-.44a1.84 1.84 0 0 1-.68-.21.36.36 0 0 0 0-.1c-.61-2.39-.61-2.39 1.35-3.85l19.31-14.48c.36-.27.69-.57 1-.86s.65-.39 1-.62c5.44-4.09 10.87-8.2 16.32-12.28 2.52-1.88 5.09-3.7 7.54-5.69a15.38 15.38 0 0 1 1.31 3.89c1.13 3.67 2.18 7.37 3.27 11.05.58 2 1.14 4 1.79 6a1.15 1.15 0 0 1-.55 1.53c-3.21 2.28-6.41 4.6-9.59 6.93q-7.09 5.13-14.14 10.32c-.16.14-.37.31-.55.46z" fill="#e67e41"/><path d="M59.06 5.38c-2.45 2-5 3.81-7.54 5.69-5.45 4.08-10.88 8.19-16.32 12.28-.3.23-.63.41-1 .62q-8.83-.97-17.7-1.89c-3.06-.32-6.13-.61-9.19-.88a1.6 1.6 0 0 1-1.64-1.34C3.86 13.5 2 7.16.1.82-.11.13 0-.06.74 0 5.88.51 11 1 16.17 1.44L29 2.64l6.7.6c4.06.36 8.11.7 12.16 1.08q5.61.51 11.2 1.06z" fill="#4cb2a7"/></svg></svg> </g></g><defs v-gra="od"/>
  </svg>
</svg>


