<svg xmlns="http://www.w3.org/2000/svg" xmlns:xlink="http://www.w3.org/1999/xlink" version="1.0" x="0" y="0" width="2400" height="546.5641721181103" viewBox="46.11080093383789 96.78608627319336 247.7783981323242 56.42783126831055" preserveAspectRatio="xMidYMid meet" color-interpolation-filters="sRGB"><g><defs><linearGradient id="92" x1="0%" y1="0%" x2="100%" y2="0%"><stop offset="0%" stop-color="#fa71cd"></stop> <stop offset="100%" stop-color="#9b59b6"></stop></linearGradient><linearGradient id="93" x1="0%" y1="0%" x2="100%" y2="0%"><stop offset="0%" stop-color="#f9d423"></stop> <stop offset="100%" stop-color="#f83600"></stop></linearGradient><linearGradient id="94" x1="0%" y1="0%" x2="100%" y2="0%"><stop offset="0%" stop-color="#0064d2"></stop> <stop offset="100%" stop-color="#1cb0f6"></stop></linearGradient><linearGradient id="95" x1="0%" y1="0%" x2="100%" y2="0%"><stop offset="0%" stop-color="#f00978"></stop> <stop offset="100%" stop-color="#3f51b1"></stop></linearGradient><linearGradient id="96" x1="0%" y1="0%" x2="100%" y2="0%"><stop offset="0%" stop-color="#7873f5"></stop> <stop offset="100%" stop-color="#ec77ab"></stop></linearGradient><linearGradient id="97" x1="0%" y1="0%" x2="100%" y2="0%"><stop offset="0%" stop-color="#f9d423"></stop> <stop offset="100%" stop-color="#e14fad"></stop></linearGradient><linearGradient id="98" x1="0%" y1="0%" x2="100%" y2="0%"><stop offset="0%" stop-color="#009efd"></stop> <stop offset="100%" stop-color="#2af598"></stop></linearGradient><linearGradient id="99" x1="0%" y1="0%" x2="100%" y2="0%"><stop offset="0%" stop-color="#ffcc00"></stop> <stop offset="100%" stop-color="#00b140"></stop></linearGradient><linearGradient id="100" x1="0%" y1="0%" x2="100%" y2="0%"><stop offset="0%" stop-color="#d51007"></stop> <stop offset="100%" stop-color="#ff8177"></stop></linearGradient><linearGradient id="102" x1="0%" y1="0%" x2="100%" y2="0%"><stop offset="0%" stop-color="#a2b6df"></stop> <stop offset="100%" stop-color="#0c3483"></stop></linearGradient><linearGradient id="103" x1="0%" y1="0%" x2="100%" y2="0%"><stop offset="0%" stop-color="#7ac5d8"></stop> <stop offset="100%" stop-color="#eea2a2"></stop></linearGradient><linearGradient id="104" x1="0%" y1="0%" x2="100%" y2="0%"><stop offset="0%" stop-color="#00ecbc"></stop> <stop offset="100%" stop-color="#007adf"></stop></linearGradient><linearGradient id="105" x1="0%" y1="0%" x2="100%" y2="0%"><stop offset="0%" stop-color="#b88746"></stop> <stop offset="100%" stop-color="#fdf5a6"></stop></linearGradient></defs><g fill="#ffffff" class="icon-text-wrapper icon-svg-group iconsvg" transform="translate(48.540000915527344,99.21528434753418)"><g class="iconsvg-imagesvg" transform="translate(0,0)"><g><rect fill="#ffffff" fill-opacity="0" stroke-width="2" x="0" y="0" width="60" height="51.569429642108155" class="image-rect"></rect> <svg x="0" y="0" width="60" height="51.569429642108155" filtersec="colorsb6667699352" class="image-svg-svg primary" style="overflow: visible;"><svg xmlns="http://www.w3.org/2000/svg" viewBox="0.005591481924057007 -0.010402679443359375 81.87439727783203 70.37040710449219"><path d="M40.61 45.56q6 .54 11.92 1.06l17.07 1.45c1.69.14 3.38.31 5.08.42a.86.86 0 0 1 .93.74c1.7 6.11 3.73 12.12 5.27 18.28.23.92.61 1.8 1 2.85l-5.11-.45c-2.83-.26-5.67-.5-8.5-.78-3.86-.37-7.71-.77-11.57-1.14-3.41-.32-6.83-.6-10.24-.93-3.23-.3-6.45-.66-9.68-1-2.51-.24-5-.45-7.55-.68-3.24-.31-6.47-.63-9.71-.93a1 1 0 0 1-.93-.78q-3-10.23-6-20.44a1.84 1.84 0 0 0 .68.21c2-.19 4.05.35 6.08.44a53.93 53.93 0 0 1 6.2.58c1.93.3 3.91.24 5.87.38 3.04.25 6.11.49 9.19.72z" fill="#4cb2a7"></path><path d="M40.61 45.56c-3.08-.23-6.15-.47-9.23-.69-2-.14-3.94-.08-5.87-.38a53.93 53.93 0 0 0-6.2-.58c-2-.09-4-.63-6.08-.44a1.84 1.84 0 0 1-.68-.21.36.36 0 0 0 0-.1c-.61-2.39-.61-2.39 1.35-3.85l19.31-14.48c.36-.27.69-.57 1-.86s.65-.39 1-.62c5.44-4.09 10.87-8.2 16.32-12.28 2.52-1.88 5.09-3.7 7.54-5.69a15.38 15.38 0 0 1 1.31 3.89c1.13 3.67 2.18 7.37 3.27 11.05.58 2 1.14 4 1.79 6a1.15 1.15 0 0 1-.55 1.53c-3.21 2.28-6.41 4.6-9.59 6.93q-7.09 5.13-14.14 10.32c-.16.14-.37.31-.55.46z" fill="#e67e41"></path><path d="M59.06 5.38c-2.45 2-5 3.81-7.54 5.69-5.45 4.08-10.88 8.19-16.32 12.28-.3.23-.63.41-1 .62q-8.83-.97-17.7-1.89c-3.06-.32-6.13-.61-9.19-.88a1.6 1.6 0 0 1-1.64-1.34C3.86 13.5 2 7.16.1.82-.11.13 0-.06.74 0 5.88.51 11 1 16.17 1.44L29 2.64l6.7.6c4.06.36 8.11.7 12.16 1.08q5.61.51 11.2 1.06z" fill="#4cb2a7"></path></svg></svg> </g></g> <g transform="translate(67,7.074716567993164)"><g fill-rule="" class="tp-name iconsvg-namesvg"><g transform="scale(1)"><g><path d="M17.86-3.91Q20.19-3.91 20.19-1.96L20.19-1.96Q20.19-1.04 19.61-0.52 19.02 0 17.86 0L17.86 0 3.95 0Q2.91 0 2.25-0.67 1.58-1.33 1.58-2.25L1.58-2.25Q1.58-3.21 2.33-4.08L2.33-4.08 13.03-16.44 3.75-16.44Q2.58-16.44 2-16.94 1.42-17.44 1.42-18.4L1.42-18.4Q1.42-19.36 2-19.86 2.58-20.36 3.75-20.36L3.75-20.36 17.19-20.36Q18.27-20.36 18.92-19.71 19.57-19.07 19.57-18.11L19.57-18.11Q19.57-17.11 18.86-16.28L18.86-16.28 8.12-3.91 17.86-3.91ZM39.51-5.58Q40.21-5.58 40.65-5.04 41.09-4.5 41.09-3.58L41.09-3.58Q41.09-2.29 39.55-1.42L39.55-1.42Q38.13-0.62 36.34-0.15 34.55 0.33 32.93 0.33L32.93 0.33Q28.02 0.33 25.14-2.5 22.27-5.33 22.27-10.24L22.27-10.24Q22.27-13.36 23.52-15.78 24.77-18.19 27.04-19.52 29.31-20.86 32.18-20.86L32.18-20.86Q34.93-20.86 36.97-19.65 39.01-18.44 40.13-16.23 41.25-14.03 41.25-11.03L41.25-11.03Q41.25-9.24 39.67-9.24L39.67-9.24 27.39-9.24Q27.64-6.37 29.01-5.02 30.39-3.66 33.01-3.66L33.01-3.66Q34.34-3.66 35.36-4 36.38-4.33 37.67-4.91L37.67-4.91Q38.92-5.58 39.51-5.58L39.51-5.58ZM32.3-17.19Q30.18-17.19 28.91-15.86 27.64-14.53 27.39-12.03L27.39-12.03 36.8-12.03Q36.72-14.57 35.55-15.88 34.38-17.19 32.3-17.19L32.3-17.19ZM57.2-20.86Q59.82-20.86 61.88-19.52 63.94-18.19 65.09-15.76 66.23-13.32 66.23-10.16L66.23-10.16Q66.23-6.99 65.09-4.62 63.94-2.25 61.9-0.96 59.86 0.33 57.2 0.33L57.2 0.33Q55.03 0.33 53.33-0.58 51.62-1.5 50.7-3.12L50.7-3.12 50.7 5.37Q50.7 6.45 50 7.08 49.29 7.7 48.12 7.7L48.12 7.7Q46.96 7.7 46.23 7.04 45.5 6.37 45.5 5.29L45.5 5.29 45.5-18.32Q45.5-19.44 46.19-20.11 46.87-20.77 48.04-20.77L48.04-20.77Q49.2-20.77 49.91-20.11 50.62-19.44 50.62-18.32L50.62-18.32 50.62-17.28Q51.54-18.98 53.26-19.92 54.99-20.86 57.2-20.86L57.2-20.86ZM55.82-3.7Q58.28-3.7 59.65-5.39 61.03-7.08 61.03-10.16L61.03-10.16Q61.03-13.32 59.65-15.07 58.28-16.82 55.82-16.82L55.82-16.82Q53.33-16.82 51.97-15.11 50.62-13.4 50.62-10.24L50.62-10.24Q50.62-7.12 51.97-5.41 53.33-3.7 55.82-3.7L55.82-3.7ZM82.42-20.86Q89.58-20.86 89.58-12.49L89.58-12.49 89.58-2.25Q89.58-1.08 88.9-0.42 88.21 0.25 87 0.25L87 0.25Q85.8 0.25 85.09-0.42 84.38-1.08 84.38-2.25L84.38-2.25 84.38-12.49Q84.38-14.69 83.49-15.71 82.59-16.73 80.68-16.73L80.68-16.73Q78.43-16.73 77.07-15.32 75.72-13.9 75.72-11.53L75.72-11.53 75.72-2.25Q75.72-1.08 75.01-0.42 74.31 0.25 73.1 0.25L73.1 0.25Q71.89 0.25 71.2-0.42 70.52-1.08 70.52-2.25L70.52-2.25 70.52-27.14Q70.52-28.22 71.25-28.89 71.98-29.56 73.14-29.56L73.14-29.56Q74.31-29.56 75.01-28.93 75.72-28.31 75.72-27.22L75.72-27.22 75.72-17.53Q76.76-19.15 78.49-20 80.22-20.86 82.42-20.86L82.42-20.86ZM109.07-19.27Q109.4-20.02 109.96-20.38 110.52-20.73 111.19-20.73L111.19-20.73Q112.15-20.73 112.92-20.09 113.69-19.44 113.69-18.48L113.69-18.48Q113.69-18.02 113.44-17.53L113.44-17.53 102.07 6.29Q101.36 7.7 99.87 7.7L99.87 7.7Q98.91 7.7 98.18 7.1 97.45 6.49 97.45 5.58L97.45 5.58Q97.45 5.12 97.7 4.54L97.7 4.54 100.53-1.42 92.79-17.53Q92.58-17.94 92.58-18.48L92.58-18.48Q92.58-19.44 93.39-20.11 94.2-20.77 95.25-20.77L95.25-20.77Q95.95-20.77 96.54-20.42 97.12-20.06 97.45-19.32L97.45-19.32 103.28-6.45 109.07-19.27ZM128.13-20.77Q129.21-20.86 129.84-20.31 130.46-19.77 130.46-18.69L130.46-18.69Q130.46-17.57 129.92-17.03 129.38-16.48 127.96-16.32L127.96-16.32 126.72-16.19Q124.26-15.94 123.12-14.53 121.97-13.11 121.97-10.99L121.97-10.99 121.97-2.25Q121.97-1.04 121.22-0.4 120.47 0.25 119.35 0.25L119.35 0.25Q118.22 0.25 117.5-0.4 116.77-1.04 116.77-2.25L116.77-2.25 116.77-18.36Q116.77-19.52 117.5-20.15 118.22-20.77 119.31-20.77L119.31-20.77Q120.39-20.77 121.05-20.17 121.72-19.57 121.72-18.44L121.72-18.44 121.72-16.78Q122.51-18.61 124.07-19.61 125.63-20.61 127.55-20.73L127.55-20.73 128.13-20.77ZM146.99-15.07Q149.61-14.4 151.01-12.55 152.4-10.7 152.4-7.95L152.4-7.95Q152.4-4.16 149.61-1.91 146.82 0.33 142.08 0.33L142.08 0.33Q139.37 0.33 136.87-0.5 134.38-1.33 132.63-2.83L132.63-2.83Q131.67-3.66 131.67-4.79L131.67-4.79Q131.67-5.7 132.19-6.35 132.71-6.99 133.42-6.99L133.42-6.99Q133.83-6.99 134.17-6.85 134.5-6.7 135.08-6.37L135.08-6.37Q136.83-5.2 138.41-4.58 140-3.95 141.87-3.95L141.87-3.95Q144.62-3.95 145.95-5.06 147.28-6.16 147.28-8.41L147.28-8.41Q147.28-10.62 145.89-11.68 144.49-12.74 141.58-12.74L141.58-12.74 139.2-12.74Q138.25-12.74 137.73-13.38 137.21-14.03 137.21-14.86L137.21-14.86Q137.21-15.74 137.73-16.36 138.25-16.98 139.2-16.98L139.2-16.98 140.87-16.98Q146.57-16.98 146.57-21.27L146.57-21.27Q146.57-23.27 145.37-24.35 144.16-25.43 142.04-25.43L142.04-25.43Q139-25.43 135.54-23.02L135.54-23.02Q134.96-22.69 134.63-22.54 134.29-22.4 133.88-22.4L133.88-22.4Q133.17-22.4 132.65-23.04 132.13-23.69 132.13-24.6L132.13-24.6Q132.13-25.23 132.36-25.66 132.59-26.1 133.09-26.56L133.09-26.56Q134.83-28.02 137.27-28.87 139.7-29.72 142.24-29.72L142.24-29.72Q146.57-29.72 149.13-27.6 151.69-25.48 151.69-21.94L151.69-21.94Q151.65-19.52 150.42-17.71 149.2-15.9 146.99-15.07L146.99-15.07ZM174.67-29.56Q175.84-29.56 176.59-28.89 177.34-28.22 177.34-27.14L177.34-27.14 177.34-2.25Q177.34-1.12 176.63-0.46 175.92 0.21 174.75 0.21L174.75 0.21Q173.59 0.21 172.88-0.46 172.17-1.12 172.17-2.25L172.17-2.25 172.17-3.29Q171.26-1.58 169.53-0.62 167.8 0.33 165.6 0.33L165.6 0.33Q162.97 0.33 160.91-1 158.85-2.33 157.71-4.77 156.56-7.2 156.56-10.37L156.56-10.37Q156.56-13.53 157.71-15.9 158.85-18.27 160.89-19.57 162.93-20.86 165.6-20.86L165.6-20.86Q167.8-20.86 169.51-19.94 171.22-19.02 172.13-17.36L172.13-17.36 172.13-27.22Q172.13-28.27 172.82-28.91 173.51-29.56 174.67-29.56L174.67-29.56ZM166.97-3.7Q169.47-3.7 170.82-5.41 172.17-7.12 172.17-10.28L172.17-10.28Q172.17-13.45 170.82-15.13 169.47-16.82 167.01-16.82L167.01-16.82Q164.51-16.82 163.14-15.15 161.77-13.49 161.77-10.37L161.77-10.37Q161.77-7.2 163.14-5.45 164.51-3.7 166.97-3.7L166.97-3.7Z" transform="translate(-1.4200000762939453, 29.719999313354492)"></path></g> </g></g> </g></g><defs v-gra="od"></defs></g></svg>